<?xml version="1.0" encoding="UTF-8"?>
<svg version="1.1" xmlns="http://www.w3.org/2000/svg" width="512" height="120">
<path d="M0 0 C168.96 0 337.92 0 512 0 C512 39.6 512 79.2 512 120 C343.04 120 174.08 120 0 120 C0 80.4 0 40.8 0 0 Z " fill="#FEFEFE" transform="translate(0,0)"/>
<path d="M0 0 C0.598125 0.19722656 1.19625 0.39445313 1.8125 0.59765625 C2.48403852 5.96996444 2.29961506 9.59493351 -1 14.03515625 C-2.98701595 16.4637313 -4.5288807 17.82524339 -7.1875 19.59765625 C-8.1775 19.59765625 -9.1675 19.59765625 -10.1875 19.59765625 C-10.5175 22.56765625 -10.8475 25.53765625 -11.1875 28.59765625 C-10.07375 28.65953125 -8.96 28.72140625 -7.8125 28.78515625 C-2.36357052 29.42965329 2.07359941 31.96601268 6.8125 34.59765625 C6.85375 33.54578125 6.895 32.49390625 6.9375 31.41015625 C8.10656883 26.31635635 9.45633269 25.36214704 13.8125 22.59765625 C16.375 22.03515625 16.375 22.03515625 18.8125 22.59765625 C21.46221542 24.4042804 23.36870529 25.71006683 24.8125 28.59765625 C24.92102631 31.29717823 24.97386837 33.97550202 24.98828125 36.67578125 C25.01148757 38.32813763 25.03560524 39.98048141 25.06054688 41.6328125 C25.09560031 44.23755214 25.12496991 46.84183101 25.13842773 49.44677734 C25.15396055 51.96118108 25.19421011 54.47423642 25.23828125 56.98828125 C25.23637283 57.76036926 25.23446442 58.53245728 25.23249817 59.32794189 C25.35015005 64.56354021 26.56201928 67.32815342 29.8125 71.59765625 C30.3819646 75.43674343 29.67625082 79.0389335 27.79296875 82.4375 C25.26793339 85.71603797 22.8133955 87.62182808 18.8125 88.59765625 C14.6585189 89.12795171 13.24747577 88.89947617 9.75 86.47265625 C8.780625 85.85390625 7.81125 85.23515625 6.8125 84.59765625 C4.35618999 85.09313168 4.35618999 85.09313168 1.8125 86.59765625 C-6.09383499 90.01175545 -14.05881134 91.3135043 -22.375 88.53125 C-29.15561949 85.42064081 -33.9634188 81.73963505 -38.1875 75.59765625 C-38.83525391 74.74300781 -38.83525391 74.74300781 -39.49609375 73.87109375 C-43.66711548 67.31869283 -42.85082508 59.03909622 -42.1875 51.59765625 C-41.46155072 48.61089349 -40.56754455 46.35774534 -39.1875 43.59765625 C-40.1775 43.26765625 -41.1675 42.93765625 -42.1875 42.59765625 C-44.23527135 39.9355535 -44.18197204 38.44010933 -44.0625 35.03515625 C-43.1875 31.59765625 -43.1875 31.59765625 -41.625 29.66015625 C-38.13670503 28.13961742 -34.93672974 27.96497373 -31.1875 28.59765625 C-30.5275 29.15453125 -29.8675 29.71140625 -29.1875 30.28515625 C-28.1975 30.93484375 -28.1975 30.93484375 -27.1875 31.59765625 C-25.06556583 31.05703608 -23.16514964 30.24804413 -21.16015625 29.37109375 C-18.75871209 28.42953742 -16.74251689 28.35812342 -14.1875 28.59765625 C-14.69006112 26.58333359 -14.69006112 26.58333359 -16.1875 24.59765625 C-18.51421854 23.90825816 -20.84817594 23.24298703 -23.1875 22.59765625 C-25.77775075 20.82537942 -26.95089511 19.64433214 -27.6484375 16.55859375 C-27.90707815 14.58034229 -28.05478876 12.58832486 -28.1875 10.59765625 C-24.74128697 10.66658051 -22.12935984 10.80582718 -19.421875 13.08203125 C-16.71829726 16.15308558 -14.9611953 18.52226126 -14.1875 22.59765625 C-12.44270901 20.85286526 -12.97717964 18.28364332 -12.875 15.91015625 C-12.46836821 10.71635935 -11.82813082 7.53347335 -8.1875 3.59765625 C-3.0656362 -0.56385809 -3.0656362 -0.56385809 0 0 Z " fill="#1E252D" transform="translate(267.1875,12.40234375)"/>
<path d="M0 0 C0.99 2.97 1.98 5.94 3 9 C4.89492746 9.19644384 6.79100903 9.38177288 8.6875 9.5625 C9.74324219 9.66691406 10.79898438 9.77132812 11.88671875 9.87890625 C14.8205121 9.99301866 17.14894182 9.5941785 20 9 C20.66 9.33 21.32 9.66 22 10 C22 14.62 22 19.24 22 24 C21.01 23.34 20.02 22.68 19 22 C16.37468476 21.83286431 16.37468476 21.83286431 14 22 C13.71125 22.86625 13.4225 23.7325 13.125 24.625 C12.75375 25.73875 12.3825 26.8525 12 28 C11.690625 29.051875 11.38125 30.10375 11.0625 31.1875 C10 34 10 34 8.3125 35.4375 C6.59970083 37.11563602 6.59970083 37.11563602 7.1875 40.5625 C7.69215918 44.04248777 7.69215918 44.04248777 10 46 C9.9765625 48.1640625 9.9765625 48.1640625 9.625 50.625 C9.51414062 51.44226563 9.40328125 52.25953125 9.2890625 53.1015625 C9.19367188 53.72804687 9.09828125 54.35453125 9 55 C-1.12359269 55.67825559 -8.87729267 55.96918676 -17 49 C-21.44632298 44.9949994 -24.24354341 39.67711863 -26 34 C-25.875 31 -25.875 31 -25 29 C-24.34 28.67 -23.68 28.34 -23 28 C-22.83564453 28.99580078 -22.83564453 28.99580078 -22.66796875 30.01171875 C-21.58171097 36.06120313 -20.45769497 40.54230503 -16 45 C-12.91652174 45.16681109 -12.91652174 45.16681109 -10 45 C-10.020625 44.25234375 -10.04125 43.5046875 -10.0625 42.734375 C-9.99772066 39.64116131 -9.82923298 36.98609805 -9 34 C-6.57309668 31.87068736 -4.08504546 30.8784298 -1 30 C-1.37729881 27.35890834 -1.76625405 26.21907131 -3.7421875 24.3671875 C-4.44601563 23.87476562 -5.14984375 23.38234375 -5.875 22.875 C-6.57367188 22.37742187 -7.27234375 21.87984375 -7.9921875 21.3671875 C-9.65484948 20.23502467 -11.32630906 19.11579396 -13 18 C-13 17.34 -13 16.68 -13 16 C-12.29875 16.144375 -11.5975 16.28875 -10.875 16.4375 C-7.92443859 17.01478375 -4.96729849 17.51695141 -2 18 C-1.23043864 15.65466049 -1.23043864 15.65466049 -1 13 C-2.81317149 10.46155991 -3.98467075 10.00510975 -7 9 C-7.73046875 7.15234375 -7.73046875 7.15234375 -8.1875 4.9375 C-8.34605469 4.20402344 -8.50460938 3.47054687 -8.66796875 2.71484375 C-8.77753906 2.14894531 -8.88710937 1.58304688 -9 1 C-6.04335481 -0.4783226 -3.25770263 -0.06032783 0 0 Z " fill="#2E97EC" transform="translate(253,44)"/>
<path d="M0 0 C1.04005702 3.38018531 1.08004482 6.4780279 1 10 C0.67 10 0.34 10 0 10 C0 8.35 0 6.7 0 5 C-4.455 5.495 -4.455 5.495 -9 6 C-8.34 7.32 -7.68 8.64 -7 10 C-7 11.32 -7 12.64 -7 14 C-6.21625 14.103125 -5.4325 14.20625 -4.625 14.3125 C-2 15 -2 15 0 18 C-0.375 20.6875 -0.375 20.6875 -1 23 C-5.93270529 24.6442351 -8.54024193 23.18615592 -13 21 C-10.80967585 23.30018367 -8.50017183 25.18959405 -5.9375 27.0625 C-3.78711607 28.63624466 -1.88786963 30.11213037 0 32 C0.0625 33.9375 0.0625 33.9375 -1 36 C-4.5625 37.75 -4.5625 37.75 -8 39 C-8.06058594 39.78246094 -8.12117188 40.56492188 -8.18359375 41.37109375 C-8.30927734 42.88896484 -8.30927734 42.88896484 -8.4375 44.4375 C-8.51871094 45.44683594 -8.59992188 46.45617187 -8.68359375 47.49609375 C-9 50 -9 50 -10 51 C-12.75 51.375 -12.75 51.375 -16 51 C-22.07652833 46.16639792 -23.02105993 41.41197483 -24 34 C-24.33 33.34 -24.66 32.68 -25 32 C-25.66 32 -26.32 32 -27 32 C-28.38766322 25.94474232 -27.49118146 22.67989374 -25 17 C-25.99 16.67 -26.98 16.34 -28 16 C-30.04777135 13.33789725 -29.99447204 11.84245308 -29.875 8.4375 C-29 5 -29 5 -27.4375 3.0625 C-23.94920503 1.54196117 -20.74922974 1.36731748 -17 2 C-16.34 2.556875 -15.68 3.11375 -15 3.6875 C-14.01 4.3371875 -14.01 4.3371875 -13 5 C-10.87806583 4.45937983 -8.97764964 3.65038788 -6.97265625 2.7734375 C-4.57121209 1.83188117 -2.55501689 1.76046717 0 2 C0 1.34 0 0.68 0 0 Z " fill="#181C17" transform="translate(253,39)"/>
<path d="M0 0 C3 0.375 3 0.375 6 2.375 C6.28869608 5.22050014 6.39286698 7.86018634 6.37109375 10.70703125 C6.38848189 12.40950716 6.40606621 14.11198107 6.42382812 15.81445312 C6.43388986 18.50044514 6.43750076 21.1863044 6.43579102 23.87231445 C6.43936764 26.46345608 6.46674178 29.0535724 6.49609375 31.64453125 C6.48791122 32.44365433 6.4797287 33.2427774 6.47129822 34.06611633 C6.53921318 39.16846203 7.35168177 41.55314303 11 45.375 C11.71663758 48.45232609 11.57314119 51.27329473 11 54.375 C9.20606332 57.24529869 8.01736724 58.86631638 5 60.375 C0.36786507 60.93012815 -2.98172127 61.0114242 -7 58.5 C-9.75577786 55.57198603 -10.17172116 53.9269883 -10.25 50 C-10.27578125 49.22914062 -10.3015625 48.45828125 -10.328125 47.6640625 C-10 45.375 -10 45.375 -8.50488281 43.75341797 C-6.32992074 40.31596169 -6.5784058 36.97307194 -6.59375 33.03125 C-6.58291382 32.22514282 -6.57207764 31.41903564 -6.56091309 30.58850098 C-6.5266895 28.01725194 -6.51106516 25.44644675 -6.5 22.875 C-6.48543042 19.4891565 -6.45176066 16.10430333 -6.40625 12.71875 C-6.40927124 11.94261353 -6.41229248 11.16647705 -6.41540527 10.36682129 C-6.37039551 7.12809057 -6.20523678 4.75820854 -4.66210938 1.87695312 C-3 0.375 -3 0.375 0 0 Z " fill="#E25846" transform="translate(283,37.625)"/>
<path d="M0 0 C2 1.1875 2 1.1875 4 3 C4.25 5.6875 4.25 5.6875 4 8 C6.475 8.495 6.475 8.495 9 9 C9.33 10.65 9.66 12.3 10 14 C7.13275314 13.42655063 6.1385485 13.1385485 4 11 C1.39719432 11.32041397 1.39719432 11.32041397 -1 12 C-0.84493007 14.40242667 -0.84493007 14.40242667 0 17 C2.01747369 18.74366294 2.01747369 18.74366294 4.5 20.0625 C6.96875 21.47265625 6.96875 21.47265625 9 23 C9.33 24.32 9.66 25.64 10 27 C7.36 27.66 4.72 28.32 2 29 C2 32.96 2 36.92 2 41 C-3.96774194 39.80645161 -3.96774194 39.80645161 -6 37 C-7.92979632 32.38993101 -8.49025013 27.92758205 -9 23 C-10.32 23 -11.64 23 -13 23 C-12.73671238 14.70644007 -10.28194761 9.14662647 -4.26953125 3.32421875 C-2.89064155 2.16149703 -1.45119352 1.07111903 0 0 Z " fill="#79CC3D" transform="translate(240,47)"/>
<path d="M0 0 C0.598125 0.19722656 1.19625 0.39445313 1.8125 0.59765625 C2.48403852 5.96996444 2.29961506 9.59493351 -1 14.03515625 C-2.98701595 16.4637313 -4.5288807 17.82524339 -7.1875 19.59765625 C-8.1775 19.59765625 -9.1675 19.59765625 -10.1875 19.59765625 C-10.5175 22.56765625 -10.8475 25.53765625 -11.1875 28.59765625 C-11.5175 27.27765625 -11.8475 25.95765625 -12.1875 24.59765625 C-13.1775 24.92765625 -14.1675 25.25765625 -15.1875 25.59765625 C-17.34375 24.92578125 -17.34375 24.92578125 -19.6875 23.84765625 C-20.4609375 23.5021875 -21.234375 23.15671875 -22.03125 22.80078125 C-24.22517926 21.57663231 -25.64615609 20.57802072 -27.1875 18.59765625 C-27.85707496 15.92446767 -27.96112708 13.35940588 -28.1875 10.59765625 C-24.74128697 10.66658051 -22.12935984 10.80582718 -19.421875 13.08203125 C-16.71829726 16.15308558 -14.9611953 18.52226126 -14.1875 22.59765625 C-12.44270901 20.85286526 -12.97717964 18.28364332 -12.875 15.91015625 C-12.46836821 10.71635935 -11.82813082 7.53347335 -8.1875 3.59765625 C-3.0656362 -0.56385809 -3.0656362 -0.56385809 0 0 Z " fill="#212523" transform="translate(267.1875,12.40234375)"/>
<path d="M0 0 C2.76375 -0.04125 5.5275 -0.0825 8.375 -0.125 C9.67896729 -0.15231201 9.67896729 -0.15231201 11.00927734 -0.18017578 C13.00703478 -0.19473738 15.00467217 -0.09956726 17 0 C19 2 19 2 19.22705078 3.87939453 C19.21657715 4.62302246 19.20610352 5.36665039 19.1953125 6.1328125 C19.18886719 6.93847656 19.18242187 7.74414062 19.17578125 8.57421875 C19.15902344 9.41597656 19.14226562 10.25773437 19.125 11.125 C19.11597656 11.97449219 19.10695312 12.82398437 19.09765625 13.69921875 C19.07405647 15.79959884 19.03818483 17.89983444 19 20 C17.35 20 15.7 20 14 20 C14 14.72 14 9.44 14 4 C13.34 4 12.68 4 12 4 C12 9.28 12 14.56 12 20 C10.35 20 8.7 20 7 20 C7 14.72 7 9.44 7 4 C6.34 4 5.68 4 5 4 C5 9.28 5 14.56 5 20 C3.35 20 1.7 20 0 20 C0 13.4 0 6.8 0 0 Z " fill="#3B853F" transform="translate(167,64)"/>
<path d="M0 0 C0.99 0.33 1.98 0.66 3 1 C3.01401855 2.61225464 3.01401855 2.61225464 3.02832031 4.25708008 C3.06818414 8.24383028 3.13393173 12.2298058 3.20751953 16.21606445 C3.23575031 17.94154918 3.2569544 19.66716374 3.27099609 21.39282227 C3.29239742 23.87323574 3.33902917 26.3520849 3.390625 28.83203125 C3.39185364 29.60400345 3.39308228 30.37597565 3.39434814 31.17134094 C3.41699234 33.60880437 3.41699234 33.60880437 4 37 C5.90559555 38.8557323 5.90559555 38.8557323 8 40 C8.49453975 43.32048116 8.30818153 45.31112364 6.9375 48.375 C5 50 5 50 1.5 50.4375 C-2 50 -2 50 -3.9375 48.9375 C-5.6140629 45.88023824 -5.36528977 43.4093712 -5 40 C-3.625 38.0625 -3.625 38.0625 -2 37 C-1.34 37 -0.68 37 0 37 C0 24.79 0 12.58 0 0 Z " fill="#371B18" transform="translate(282,44)"/>
<path d="M0 0 C2.64971542 1.80662415 4.55620529 3.11241058 6 6 C6.10852631 8.69952198 6.16136837 11.37784577 6.17578125 14.078125 C6.19898757 15.73048138 6.22310524 17.38282516 6.24804688 19.03515625 C6.28310031 21.63989589 6.31246991 24.24417476 6.32592773 26.84912109 C6.34146055 29.36352483 6.38171011 31.87658017 6.42578125 34.390625 C6.42387283 35.16271301 6.42196442 35.93480103 6.41999817 36.73028564 C6.53765005 41.96588396 7.74951928 44.73049717 11 49 C11.5694646 52.83908718 10.86375082 56.44127725 8.98046875 59.83984375 C6.45543339 63.11838172 4.0008955 65.02417183 0 66 C-3.98008754 66.32490511 -6.57886591 66.10531329 -10 64 C-10 63.34 -10 62.68 -10 62 C-8.78763672 62.08701172 -8.78763672 62.08701172 -7.55078125 62.17578125 C-0.8372872 62.52447512 -0.8372872 62.52447512 5.25 60.0625 C7.54563492 56.04513888 8.12352118 52.52507839 7 48 C6.01132935 46.964198 6.01132935 46.964198 5.00268555 45.9074707 C2.27759536 41.9512231 2.39779109 38.89673702 2.390625 34.19921875 C2.37408875 33.36284378 2.35755249 32.52646881 2.34051514 31.66474915 C2.2921106 29.00559084 2.27068156 26.34700408 2.25 23.6875 C2.22183391 21.87952865 2.19190559 20.07158385 2.16015625 18.26367188 C2.08635395 13.84249499 2.03673348 9.42163397 2 5 C-0.79870027 3.60064987 -2.90498792 3.74734595 -6 4 C-7.93654948 5.01970318 -7.93654948 5.01970318 -9 7 C-9.7269226 10.10839021 -9.7269226 10.10839021 -10 13 C-10.33 13 -10.66 13 -11 13 C-11.71105791 6.00793057 -11.71105791 6.00793057 -9.83984375 3.35546875 C-6.69060284 0.56061812 -4.15621436 -0.95912639 0 0 Z " fill="#454242" transform="translate(286,35)"/>
<path d="M0 0 C0.66 0 1.32 0 2 0 C2 1.32 2 2.64 2 4 C3.27875 4.061875 4.5575 4.12375 5.875 4.1875 C11.50013752 4.7946577 16.2493489 6.97428769 21 10 C21.33 10.66 21.66 11.32 22 12 C21.67 12.66 21.34 13.32 21 14 C20.34 14 19.68 14 19 14 C19 14.66 19 15.32 19 16 C15.5027207 18.18791144 12.93530161 18.1566779 8.875 17.8125 C7.82054687 17.73644531 6.76609375 17.66039063 5.6796875 17.58203125 C3 17 3 17 1 14 C0.74239721 11.30547479 0.91099947 8.71451625 1 6 C-0.65 6 -2.3 6 -4 6 C-4 5.67 -4 5.34 -4 5 C-2.35 5 -0.7 5 1 5 C0.67 3.35 0.34 1.7 0 0 Z " fill="#0E191B" transform="translate(253,37)"/>
<path d="M0 0 C2.64 0 5.28 0 8 0 C8.33772739 2.70784994 8.67030687 5.41616996 9 8.125 C9.09539062 8.88554688 9.19078125 9.64609375 9.2890625 10.4296875 C9.79830188 14.64909952 10.10888068 18.74004344 10 23 C8.35 23 6.7 23 5 23 C5 21.68 5 20.36 5 19 C4.01 19 3.02 19 2 19 C2 20.32 2 21.64 2 23 C0.68 23 -0.64 23 -2 23 C-1.86068862 19.9163358 -1.71240719 16.83316583 -1.5625 13.75 C-1.52318359 12.87730469 -1.48386719 12.00460938 -1.44335938 11.10546875 C-1.40146484 10.26113281 -1.35957031 9.41679688 -1.31640625 8.546875 C-1.27974854 7.77182617 -1.24309082 6.99677734 -1.20532227 6.19824219 C-1.00396985 4.0425024 -0.58270703 2.08198525 0 0 Z " fill="#408844" transform="translate(297,48)"/>
<path d="M0 0 C2.98704569 0.49784095 4.39324263 1.26216175 7 3 C7.69183132 10.14892362 7.69183132 10.14892362 5.47265625 12.87890625 C3.02186658 16.40882346 3.99372237 20.08634029 4.28515625 24.22265625 C4 27 4 27 2.18359375 28.87109375 C0 30 0 30 -3 30 C-2.9175 28.948125 -2.835 27.89625 -2.75 26.8125 C-3.04076631 22.37831374 -4.23427495 21.30102668 -7 18 C-7 15.9375 -7 15.9375 -6 14 C-5.01 13.1646875 -5.01 13.1646875 -4 12.3125 C-1.35567582 9.25500017 -1.40151414 6.86643258 -1.17578125 2.92578125 C-1 1 -1 1 0 0 Z " fill="#77C93D" transform="translate(268,67)"/>
<path d="M0 0 C3 0.4375 3 0.4375 4.66796875 1.4921875 C6.7081967 4.47175794 6.3947572 7.52216537 6.3125 11 C6.31572266 11.68513672 6.31894531 12.37027344 6.32226562 13.07617188 C6.26727586 18.17022414 6.26727586 18.17022414 4 20.4375 C0.5625 20.8125 0.5625 20.8125 -3 20.4375 C-5.32367237 18.18327071 -5.95201601 16.7837374 -6.3984375 13.5625 C-6.38683594 12.015625 -6.38683594 12.015625 -6.375 10.4375 C-6.38273437 9.40625 -6.39046875 8.375 -6.3984375 7.3125 C-5.77938211 2.84559054 -4.55786074 0.66468803 0 0 Z " fill="#509253" transform="translate(342,50.5625)"/>
<path d="M0 0 C1.051875 0.01160156 1.051875 0.01160156 2.125 0.0234375 C2.82625 0.01570313 3.5275 0.00796875 4.25 0 C6.125 0.3984375 6.125 0.3984375 8.125 3.3984375 C8.25 6.5859375 8.25 6.5859375 8.125 9.3984375 C6.475 9.3984375 4.825 9.3984375 3.125 9.3984375 C3.125 7.7484375 3.125 6.0984375 3.125 4.3984375 C2.465 4.3984375 1.805 4.3984375 1.125 4.3984375 C1.125 9.3484375 1.125 14.2984375 1.125 19.3984375 C1.785 19.3984375 2.445 19.3984375 3.125 19.3984375 C3.125 17.4184375 3.125 15.4384375 3.125 13.3984375 C4.775 13.3984375 6.425 13.3984375 8.125 13.3984375 C8.48603152 19.776661 8.48603152 19.776661 7 22.3359375 C4.23519567 23.90265995 2.24311483 23.78820185 -0.875 23.3984375 C-2.53979492 22.11914062 -2.53979492 22.11914062 -3.875 20.3984375 C-4.14645356 17.47958198 -4.24824966 14.80956113 -4.1875 11.8984375 C-4.19072266 11.12628906 -4.19394531 10.35414062 -4.19726562 9.55859375 C-4.11448667 0.87432842 -4.11448667 0.87432842 0 0 Z " fill="#3C8540" transform="translate(144.875,60.6015625)"/>
<path d="M0 0 C3.3 0 6.6 0 10 0 C12 2 12 2 12.22705078 3.87939453 C12.21134033 4.99483643 12.21134033 4.99483643 12.1953125 6.1328125 C12.18564453 7.34130859 12.18564453 7.34130859 12.17578125 8.57421875 C12.15902344 9.41597656 12.14226562 10.25773437 12.125 11.125 C12.11597656 11.97449219 12.10695313 12.82398438 12.09765625 13.69921875 C12.07405647 15.79959884 12.03818483 17.89983444 12 20 C10.35 20 8.7 20 7 20 C7 14.72 7 9.44 7 4 C6.34 4 5.68 4 5 4 C5 9.28 5 14.56 5 20 C3.35 20 1.7 20 0 20 C0 13.4 0 6.8 0 0 Z " fill="#3C8640" transform="translate(350,51)"/>
<path d="M0 0 C2.375 1.4375 2.375 1.4375 3.3125 4.4375 C3.333125 5.4275 3.35375 6.4175 3.375 7.4375 C2.715 8.0975 2.055 8.7575 1.375 9.4375 C-2.6045702 9.08376043 -5.98188886 8.04475491 -9.625 6.4375 C-7.43467585 8.73768367 -5.12517183 10.62709405 -2.5625 12.5 C-0.41211607 14.07374466 1.48713037 15.54963037 3.375 17.4375 C3.4375 19.375 3.4375 19.375 2.375 21.4375 C-1.1875 23.1875 -1.1875 23.1875 -4.625 24.4375 C-4.68558594 25.21996094 -4.74617187 26.00242187 -4.80859375 26.80859375 C-4.89238281 27.82050781 -4.97617188 28.83242187 -5.0625 29.875 C-5.14371094 30.88433594 -5.22492188 31.89367187 -5.30859375 32.93359375 C-5.625 35.4375 -5.625 35.4375 -6.625 36.4375 C-9.375 36.8125 -9.375 36.8125 -12.625 36.4375 C-15.72664769 33.88725635 -17.35066416 32.26050753 -18.625 28.4375 C-18.693991 26.37604893 -18.70967727 24.31248599 -18.6875 22.25 C-18.67396484 20.61998047 -18.67396484 20.61998047 -18.66015625 18.95703125 C-18.64855469 18.12558594 -18.63695312 17.29414062 -18.625 16.4375 C-18.295 16.4375 -17.965 16.4375 -17.625 16.4375 C-17.46064453 17.54158203 -17.46064453 17.54158203 -17.29296875 18.66796875 C-16.27147722 26.08453751 -16.27147722 26.08453751 -12.625 32.4375 C-10.05400598 33.78439915 -10.05400598 33.78439915 -7.625 34.4375 C-7.74359375 33.76203125 -7.8621875 33.0865625 -7.984375 32.390625 C-9.03740087 25.10368601 -9.03740087 25.10368601 -7 21.8125 C-4.2828456 20.23941061 -2.71411196 20.09426534 0.375 20.4375 C-1.12246706 16.54752809 -3.32922078 14.96801948 -6.75 12.6875 C-7.66007813 12.07390625 -8.57015625 11.4603125 -9.5078125 10.828125 C-10.20648438 10.36921875 -10.90515625 9.9103125 -11.625 9.4375 C-11.295 7.7875 -10.965 6.1375 -10.625 4.4375 C-8.3125 3.75 -8.3125 3.75 -5.625 3.4375 C-4 4.8125 -4 4.8125 -2.625 6.4375 C-1.635 6.7675 -0.645 7.0975 0.375 7.4375 C-0.7928266 3.62336998 -0.7928266 3.62336998 -3.75 1.125 C-4.36875 0.898125 -4.9875 0.67125 -5.625 0.4375 C-2.625 -0.5625 -2.625 -0.5625 0 0 Z " fill="#131F1C" transform="translate(249.625,53.5625)"/>
<path d="M0 0 C0.99 0.66 1.98 1.32 3 2 C3.40843923 4.71203652 3.13336867 7.2437142 3 10 C0.69 10 -1.62 10 -4 10 C-4 11.98 -4 13.96 -4 16 C-3.34 16 -2.68 16 -2 16 C-2 14.68 -2 13.36 -2 12 C-0.35 12 1.3 12 3 12 C2.74438677 14.3431213 2.40729228 16.67843403 2 19 C-0.82883747 20.41441874 -2.87376745 20.31900332 -6 20 C-8.42514912 17.66004347 -8.96979999 16.23715888 -9.3984375 12.87109375 C-9.39070312 11.73800781 -9.38296875 10.60492188 -9.375 9.4375 C-9.38273438 8.30183594 -9.39046875 7.16617188 -9.3984375 5.99609375 C-9 3 -9 3 -7.6640625 1.1171875 C-5.08881233 -0.61173632 -3.01710449 -0.31428172 0 0 Z " fill="#438A47" transform="translate(218,64)"/>
<path d="M0 0 C3.5625 0.1875 3.5625 0.1875 5.5625 2.1875 C5.78955078 4.06689453 5.78955078 4.06689453 5.7578125 6.3203125 C5.74814453 7.52880859 5.74814453 7.52880859 5.73828125 8.76171875 C5.72152344 9.60347656 5.70476562 10.44523437 5.6875 11.3125 C5.67847656 12.16199219 5.66945312 13.01148437 5.66015625 13.88671875 C5.63655647 15.98709884 5.60068483 18.08733444 5.5625 20.1875 C3.91675434 20.21438151 2.27088587 20.23384123 0.625 20.25 C-0.29152344 20.26160156 -1.20804688 20.27320312 -2.15234375 20.28515625 C-4.4375 20.1875 -4.4375 20.1875 -5.4375 19.1875 C-5.87084269 16.13552936 -5.937809 13.23193352 -5.4375 10.1875 C-2.9375 7.625 -2.9375 7.625 -0.4375 6.1875 C-2.0875 6.1875 -3.7375 6.1875 -5.4375 6.1875 C-4.36970339 0.23834746 -4.36970339 0.23834746 0 0 Z " fill="#348138" transform="translate(193.4375,63.8125)"/>
<path d="M0 0 C0.99 0.66 1.98 1.32 3 2 C3.1875 5.125 3.1875 5.125 3 8 C1.35 8 -0.3 8 -2 8 C-2 6.68 -2 5.36 -2 4 C-2.66 4 -3.32 4 -4 4 C-4 7.96 -4 11.92 -4 16 C-3.34 16 -2.68 16 -2 16 C-2 14.35 -2 12.7 -2 11 C-0.35 11 1.3 11 3 11 C3.36 16.4 3.36 16.4 1.875 18.875 C-0.91106042 20.54663625 -2.81988862 20.46376624 -6 20 C-8.41640261 17.65166507 -8.96959262 16.23878739 -9.3984375 12.87109375 C-9.39070313 11.73800781 -9.38296875 10.60492188 -9.375 9.4375 C-9.38273437 8.30183594 -9.39046875 7.16617188 -9.3984375 5.99609375 C-9 3 -9 3 -7.6640625 1.1171875 C-5.08881233 -0.61173632 -3.01710449 -0.31428172 0 0 Z " fill="#3B853E" transform="translate(317,51)"/>
<path d="M0 0 C0.33 0 0.66 0 1 0 C1.07420941 5.33851078 1.12863002 10.67672067 1.16479492 16.015625 C1.17987262 17.83143342 1.20033798 19.64720547 1.22631836 21.46289062 C1.2627468 24.07431008 1.27973638 26.68524765 1.29296875 29.296875 C1.30845261 30.10743347 1.32393646 30.91799194 1.33988953 31.75311279 C1.34120891 36.18120012 1.08086557 38.74339879 -2 42 C-2.80103664 46.38999491 -2.45901541 50.06284353 -0.5 54.0625 C-0.005 54.701875 0.49 55.34125 1 56 C-1.33333333 56 -3.66666667 56 -6 56 C-5.74863281 55.18015625 -5.74863281 55.18015625 -5.4921875 54.34375 C-4.74264496 50.7744998 -5.08842493 47.28313686 -5.2578125 43.65625 C-4.95223757 40.50790226 -3.93884649 39.4272582 -2 37 C-1.43672257 34.88181743 -1.43672257 34.88181743 -1.3125 32.75 C-1.209375 31.5125 -1.10625 30.275 -1 29 C-3.64738916 27.5393715 -4.89448334 27 -8 27 C-8.04898437 27.63808594 -8.09796875 28.27617188 -8.1484375 28.93359375 C-8.22320312 29.75988281 -8.29796875 30.58617188 -8.375 31.4375 C-8.44460938 32.26121094 -8.51421875 33.08492187 -8.5859375 33.93359375 C-8.79089844 34.95646484 -8.79089844 34.95646484 -9 36 C-9.99 36.495 -9.99 36.495 -11 37 C-11.05391993 35.20866022 -11.09275571 33.41686101 -11.125 31.625 C-11.14820313 30.62726563 -11.17140625 29.62953125 -11.1953125 28.6015625 C-11 26 -11 26 -9 24 C-6.5 23.75 -6.5 23.75 -4 24 C-3.34 24.66 -2.68 25.32 -2 26 C-1.67 21.71 -1.34 17.42 -1 13 C-1.99 12.67 -2.98 12.34 -4 12 C-4 11.34 -4 10.68 -4 10 C-3.34 10 -2.68 10 -2 10 C-1.34 6.7 -0.68 3.4 0 0 Z " fill="#0B0C0D" transform="translate(276,41)"/>
<path d="M0 0 C3.44621303 0.06892426 6.05814016 0.20817093 8.765625 2.484375 C11.46920274 5.55542933 13.2263047 7.92460501 14 12 C14.66 11.67 15.32 11.34 16 11 C16.33 13.31 16.66 15.62 17 18 C16.67 16.68 16.34 15.36 16 14 C15.01 14.33 14.02 14.66 13 15 C10.84375 14.328125 10.84375 14.328125 8.5 13.25 C7.7265625 12.90453125 6.953125 12.5590625 6.15625 12.203125 C3.96232074 10.97897606 2.54134391 9.98036447 1 8 C0.33042504 5.32681142 0.22637292 2.76174963 0 0 Z " fill="#242526" transform="translate(239,23)"/>
<path d="M0 0 C2.62182617 1.47753906 2.62182617 1.47753906 5 4 C5.69691724 6.97827215 5.5826642 9.87738478 5.48828125 12.921875 C5.48120651 13.78186096 5.47413177 14.64184692 5.46684265 15.52789307 C5.43889611 18.2694875 5.3761598 21.009025 5.3125 23.75 C5.28741734 25.61064755 5.26460411 27.47132717 5.24414062 29.33203125 C5.18906887 33.88881106 5.10279655 38.44405704 5 43 C4.34 43 3.68 43 3 43 C2.67 30.46 2.34 17.92 2 5 C-0.79870027 3.60064987 -2.90498792 3.74734595 -6 4 C-7.93654948 5.01970318 -7.93654948 5.01970318 -9 7 C-9.7269226 10.10839021 -9.7269226 10.10839021 -10 13 C-10.33 13 -10.66 13 -11 13 C-11.71105791 6.00793057 -11.71105791 6.00793057 -9.83984375 3.35546875 C-6.69060284 0.56061812 -4.15621436 -0.95912639 0 0 Z " fill="#2F1D1C" transform="translate(286,35)"/>
<path d="M0 0 C1.32 0 2.64 0 4 0 C4 1.32 4 2.64 4 4 C4.66 4 5.32 4 6 4 C6 10.27 6 16.54 6 23 C4.35 23 2.7 23 1 23 C-1.15719034 20.84280966 -0.46714669 16.18439155 -0.625 13.1875 C-0.6765625 12.36701172 -0.728125 11.54652344 -0.78125 10.70117188 C-0.82507813 9.90646484 -0.86890625 9.11175781 -0.9140625 8.29296875 C-0.9548291 7.5661792 -0.9955957 6.83938965 -1.03759766 6.09057617 C-0.99845189 3.91391921 -0.60816786 2.08392977 0 0 Z " fill="#37823B" transform="translate(202,61)"/>
<path d="M0 0 C1.65 0 3.3 0 5 0 C5 7.92 5 15.84 5 24 C3.35 24 1.7 24 0 24 C0 16.08 0 8.16 0 0 Z " fill="#38833C" transform="translate(154,60)"/>
<path d="M0 0 C1.65 0 3.3 0 5 0 C5.86809439 5.20173095 6.12515348 10.16978816 6.0625 15.4375 C6.05798828 16.16904297 6.05347656 16.90058594 6.04882812 17.65429688 C6.03718148 19.43623419 6.01925191 21.21812863 6 23 C4.35 23 2.7 23 1 23 C1 17.72 1 12.44 1 7 C0.34 7 -0.32 7 -1 7 C-0.67 4.69 -0.34 2.38 0 0 Z " fill="#338037" transform="translate(322,48)"/>
<path d="M0 0 C2.64 0 5.28 0 8 0 C7.67 1.32 7.34 2.64 7 4 C6.34 4 5.68 4 5 4 C5 9.28 5 14.56 5 20 C3.35 20 1.7 20 0 20 C0 13.4 0 6.8 0 0 Z " fill="#428946" transform="translate(167,64)"/>
<path d="M0 0 C0.33 0 0.66 0 1 0 C1.33 2.31 1.66 4.62 2 7 C0.68 7.99 -0.64 8.98 -2 10 C-1.60646972 13.65043683 -1.60646972 13.65043683 0.625 16.375 C1.07875 16.91125 1.5325 17.4475 2 18 C1.6875 21.6875 1.6875 21.6875 1 25 C2.65 24.67 4.3 24.34 6 24 C6.33 24.66 6.66 25.32 7 26 C0.08715353 30.04654428 -7.25824503 29.26901851 -15 29 C-15 28.67 -15 28.34 -15 28 C-8.565 27.505 -8.565 27.505 -2 27 C-1.5094401 19.87231263 -1.5094401 19.87231263 -5 14 C-5.4375 11.5 -5.4375 11.5 -5 9 C-3.68799596 7.64567325 -2.35368596 6.31266518 -1 5 C-0.20318682 2.35815459 -0.20318682 2.35815459 0 0 Z " fill="#152626" transform="translate(264,72)"/>
<path d="M0 0 C7.06601636 0.97012929 12.23013364 2.77736037 18 7 C17.360625 7.144375 16.72125 7.28875 16.0625 7.4375 C14.02454854 7.81007181 14.02454854 7.81007181 13 9 C10.98035801 9.07244053 8.95832876 9.08377188 6.9375 9.0625 C5.28041016 9.04896484 5.28041016 9.04896484 3.58984375 9.03515625 C2.73519531 9.02355469 1.88054687 9.01195312 1 9 C-0.4783226 6.04335481 -0.06032783 3.25770263 0 0 Z " fill="#78CA3D" transform="translate(256,43)"/>
<path d="M0 0 C1.65 0 3.3 0 5 0 C5 6.6 5 13.2 5 20 C3.35 20 1.7 20 0 20 C0 13.4 0 6.8 0 0 Z " fill="#418845" transform="translate(161,64)"/>
<path d="M0 0 C1.65 0 3.3 0 5 0 C5 6.6 5 13.2 5 20 C3.35 20 1.7 20 0 20 C0 13.4 0 6.8 0 0 Z " fill="#3B853F" transform="translate(330,51)"/>
<path d="M0 0 C0.48512072 7.1555306 0.48512072 7.1555306 -1.6875 10.9375 C-4.21195277 13.18903896 -5.67042093 13.72253508 -9 14 C-9.50432107 8.7046288 -8.28757779 6.13295494 -5 2 C-2 0 -2 0 0 0 Z " fill="#36804B" transform="translate(266,15)"/>
<path d="M0 0 C1.06723961 3.46222615 1.10173486 6.64039266 1.0625 10.25 C1.05347656 11.32765625 1.04445312 12.4053125 1.03515625 13.515625 C1.02355469 14.33546875 1.01195312 15.1553125 1 16 C-0.99954746 16.04254356 -3.00041636 16.04080783 -5 16 C-6.5788684 14.4211316 -6.28319742 12.80707663 -6.375 10.625 C-6.36328125 8.15625 -6.36328125 8.15625 -6 6 C-3.5625 4.125 -3.5625 4.125 -1 3 C-0.67 2.01 -0.34 1.02 0 0 Z " fill="#5B995E" transform="translate(194,68)"/>
<path d="M0 0 C0 4 0 4 -1.20703125 5.703125 C-1.73683594 6.21359375 -2.26664063 6.7240625 -2.8125 7.25 C-3.33457031 7.77078125 -3.85664063 8.2915625 -4.39453125 8.828125 C-6 10 -6 10 -9 10 C-10.39935013 7.20129973 -10.25265405 5.09501208 -10 2 C-7.64463991 -2.2950684 -4.23605512 -0.87918125 0 0 Z " fill="#ECB437" transform="translate(236,44)"/>
<path d="M0 0 C0.99 0 1.98 0 3 0 C4.65497356 3.30994713 4.10084335 6.99123 4.0625 10.625 C4.05798828 11.42679688 4.05347656 12.22859375 4.04882812 13.0546875 C4.03703168 15.03649006 4.01909605 17.01825433 4 19 C2.68 19 1.36 19 0 19 C0 12.73 0 6.46 0 0 Z " fill="#348138" transform="translate(351,52)"/>
<path d="M0 0 C3.4375 0.8125 3.4375 0.8125 5.4375 2.8125 C5.4375 3.8025 5.4375 4.7925 5.4375 5.8125 C1.4775 6.8025 -2.4825 7.7925 -6.5625 8.8125 C-6.5625 8.1525 -6.5625 7.4925 -6.5625 6.8125 C-7.2225 6.8125 -7.8825 6.8125 -8.5625 6.8125 C-5.38164894 -0.28324468 -5.38164894 -0.28324468 0 0 Z " fill="#CDCDCD" transform="translate(247.5625,35.1875)"/>
<path d="M0 0 C0.66 0.33 1.32 0.66 2 1 C1.01 2.485 1.01 2.485 0 4 C-0.25030977 6.58380177 -0.25030977 6.58380177 0 9 C1.0595877 10.28322547 1.0595877 10.28322547 3.5 10.125 C5.9404123 10.28322547 5.9404123 10.28322547 7 9 C7.41717279 6.58462162 7.41717279 6.58462162 7 4 C5.0995533 2.15684329 5.0995533 2.15684329 3 1 C6 0 6 0 8.1875 1.0625 C10 3 10 3 10.4375 5.9375 C9.94940209 9.3541854 9.65016543 10.77728061 7 13 C3.55514741 13.43060657 1.15493758 13.63335287 -1.9375 11.9375 C-3.6140629 8.88023824 -3.36528977 6.4093712 -3 3 C-1.5 1.0625 -1.5 1.0625 0 0 Z " fill="#1B0F0D" transform="translate(280,81)"/>
<path d="M0 0 C2.5 0.25 2.5 0.25 4.5 2.25 C4.75 4.75 4.75 4.75 4.5 7.25 C2.5 9.25 2.5 9.25 0 9.5 C-2.5 9.25 -2.5 9.25 -4.5 7.25 C-4.75 4.75 -4.75 4.75 -4.5 2.25 C-2.5 0.25 -2.5 0.25 0 0 Z " fill="#DEA935" transform="translate(283.5,82.75)"/>
<path d="M0 0 C0.33 0.99 0.66 1.98 1 3 C1.66 3 2.32 3 3 3 C3 9.6 3 16.2 3 23 C2.34 23 1.68 23 1 23 C0.03911617 20.11734851 -0.11670941 18.32337729 -0.09765625 15.33203125 C-0.09443359 14.43935547 -0.09121094 13.54667969 -0.08789062 12.62695312 C-0.07951172 11.69818359 -0.07113281 10.76941406 -0.0625 9.8125 C-0.05798828 8.87212891 -0.05347656 7.93175781 -0.04882812 6.96289062 C-0.03704626 4.64186288 -0.02059558 2.32096356 0 0 Z " fill="#DFEBE0" transform="translate(327,48)"/>
<path d="M0 0 C0.33 0 0.66 0 1 0 C1.10957031 0.73605469 1.21914062 1.47210938 1.33203125 2.23046875 C2.32839663 9.66643618 2.32839663 9.66643618 6 16 C8.59122743 16.88658466 8.59122743 16.88658466 11 17 C11.33 15.02 11.66 13.04 12 11 C12.33 11 12.66 11 13 11 C13.09765625 17.15234375 13.09765625 17.15234375 13 19 C12 20 12 20 9.25 20.375 C4.955795 19.87951481 3.68046663 18.29314471 1 15 C-0.09506492 11.71480525 -0.09960608 9.26336585 -0.0625 5.8125 C-0.05347656 4.72582031 -0.04445312 3.63914062 -0.03515625 2.51953125 C-0.02355469 1.68808594 -0.01195312 0.85664062 0 0 Z " fill="#0C1412" transform="translate(231,70)"/>
<path d="M0 0 C0.66 0 1.32 0 2 0 C2 1.65 2 3.3 2 5 C3.98 4.67 5.96 4.34 8 4 C8 5.65 8 7.3 8 9 C6.02 9 4.04 9 2 9 C2 10.98 2 12.96 2 15 C1.34 15 0.68 15 0 15 C0 10.05 0 5.1 0 0 Z " fill="#F7FAF7" transform="translate(146,65)"/>
<path d="M0 0 C0.66 0 1.32 0 2 0 C2 1.32 2 2.64 2 4 C3.98 3.67 5.96 3.34 8 3 C8.33 3.66 8.66 4.32 9 5 C2.08715353 9.04654428 -5.25824503 8.26901851 -13 8 C-13 7.67 -13 7.34 -13 7 C-6.565 6.505 -6.565 6.505 0 6 C0 4.02 0 2.04 0 0 Z " fill="#13191C" transform="translate(262,93)"/>
<path d="M0 0 C0.86778 2.94377675 1.03384943 5.38229603 0.875 8.4375 C0.80888025 12.44435658 1.4897143 14.75754764 4 18 C1.66666667 18 -0.66666667 18 -3 18 C-2.83371094 17.45472656 -2.66742188 16.90945312 -2.49609375 16.34765625 C-1.735695 12.7492338 -2.03600616 9.2185385 -2.16015625 5.55859375 C-2 3 -2 3 0 0 Z " fill="#17130E" transform="translate(273,79)"/>
<path d="M0 0 C0.33 0 0.66 0 1 0 C1.16435547 0.99580078 1.16435547 0.99580078 1.33203125 2.01171875 C2.21516699 6.92999504 3.02895741 10.86637552 6 15 C6.33 15.66 6.66 16.32 7 17 C6.34 17.66 5.68 18.32 5 19 C-2.36734694 9.30612245 -2.36734694 9.30612245 -1.6875 3.1875 C-1 1 -1 1 0 0 Z " fill="#2E84CB" transform="translate(229,72)"/>
<path d="M0 0 C0.99 0.33 1.98 0.66 3 1 C2.360625 1.845625 1.72125 2.69125 1.0625 3.5625 C-1.1966273 6.90728565 -1.67791759 9.97396992 -2 14 C-1.34 14.33 -0.68 14.66 0 15 C-1.32 16.65 -2.64 18.3 -4 20 C-4.68912276 6.02612175 -4.68912276 6.02612175 -2 2.125 C-1.34 1.42375 -0.68 0.7225 0 0 Z " fill="#161818" transform="translate(259,16)"/>
<path d="M0 0 C6.96050253 0.38669459 11.9394075 2.63438409 18 6 C18 6.99 18 7.98 18 9 C17.28714844 8.67386719 16.57429688 8.34773438 15.83984375 8.01171875 C10.58399401 5.6136931 5.32216173 3.24713495 0 1 C0 0.67 0 0.34 0 0 Z " fill="#1D221A" transform="translate(256,41)"/>
<path d="M0 0 C0.33 0.66 0.66 1.32 1 2 C2.98 2 4.96 2 7 2 C7.33 1.34 7.66 0.68 8 0 C7.75 1.875 7.75 1.875 7 4 C6.3503125 4.268125 5.700625 4.53625 5.03125 4.8125 C2.76577418 5.84177554 2.76577418 5.84177554 2.171875 8.3828125 C2.03265625 9.28773437 1.8934375 10.19265625 1.75 11.125 C1.60046875 12.03507812 1.4509375 12.94515625 1.296875 13.8828125 C1.19890625 14.58148438 1.1009375 15.28015625 1 16 C0.67 16 0.34 16 0 16 C0 10.72 0 5.44 0 0 Z " fill="#E7F0E8" transform="translate(186,68)"/>
<path d="M0 0 C1.2375 0.1546875 1.2375 0.1546875 2.5 0.3125 C3.16 1.3025 3.82 2.2925 4.5 3.3125 C2.5 3.3125 0.5 3.3125 -1.5 3.3125 C-1.54898437 3.95058594 -1.59796875 4.58867188 -1.6484375 5.24609375 C-1.72320312 6.07238281 -1.79796875 6.89867188 -1.875 7.75 C-1.97941406 8.98556641 -1.97941406 8.98556641 -2.0859375 10.24609375 C-2.22257812 10.92800781 -2.35921875 11.60992187 -2.5 12.3125 C-3.49 12.8075 -3.49 12.8075 -4.5 13.3125 C-4.55391993 11.52116022 -4.59275571 9.72936101 -4.625 7.9375 C-4.64820313 6.93976563 -4.67140625 5.94203125 -4.6953125 4.9140625 C-4.42749022 1.34666972 -3.54835117 0.4435439 0 0 Z " fill="#0C1310" transform="translate(269.5,64.6875)"/>
<path d="M0 0 C2.7019433 0.36512747 4.58390852 0.69869237 6.8125 2.3125 C8 4 8 4 8 8 C4.11137013 6.73882275 2.10624401 5.54735833 0 2 C0 1.34 0 0.68 0 0 Z " fill="#357B49" transform="translate(241,26)"/>
<path d="M0 0 C4.05780213 -0.47183746 5.56195324 -0.33329645 8.875 2.1875 C11 5 11 5 11.3125 7.8125 C11.1578125 8.8953125 11.1578125 8.8953125 11 10 C9.68 10.33 8.36 10.66 7 11 C7.66 10.67 8.32 10.34 9 10 C8.31267043 7.25068173 7.64439778 5.46581179 5.30859375 3.77734375 C3.56883675 2.79675344 1.7862389 1.89311945 0 1 C0 0.67 0 0.34 0 0 Z " fill="#111513" transform="translate(240,24)"/>
<path d="M0 0 C0.99 0.33 1.98 0.66 3 1 C2.01 2.485 2.01 2.485 1 4 C0.92094936 6.33199388 0.91201231 8.66832622 1 11 C0.01 11 -0.98 11 -2 11 C-3.35384615 4.6 -3.35384615 4.6 -1.5625 1.5625 C-1.046875 1.046875 -0.53125 0.53125 0 0 Z " fill="#37322B" transform="translate(226,42)"/>
<path d="M0 0 C0 2.97 0 5.94 0 9 C-0.99 8.34 -1.98 7.68 -3 7 C-3.1875 4.375 -3.1875 4.375 -3 2 C-4.98 2.33 -6.96 2.66 -9 3 C-4.94736842 -1.23684211 -4.94736842 -1.23684211 0 0 Z " fill="#333A36" transform="translate(269,13)"/>
<path d="M0 0 C1.04005702 3.38018531 1.08004482 6.4780279 1 10 C0.67 10 0.34 10 0 10 C0 8.35 0 6.7 0 5 C-0.62648437 5.09539063 -1.25296875 5.19078125 -1.8984375 5.2890625 C-2.71570313 5.39992188 -3.53296875 5.51078125 -4.375 5.625 C-5.18710938 5.74101563 -5.99921875 5.85703125 -6.8359375 5.9765625 C-7.55007812 5.98429687 -8.26421875 5.99203125 -9 6 C-9.66 5.34 -10.32 4.68 -11 4 C-7.17679443 2.57741188 -4.08718695 1.75957724 0 2 C0 1.34 0 0.68 0 0 Z " fill="#2D3F50" transform="translate(253,39)"/>
<path d="M0 0 C3.3 0.33 6.6 0.66 10 1 C10 1.99 10 2.98 10 4 C6.05272412 4.17942163 3.4019487 4.09350689 0 2 C0 1.34 0 0.68 0 0 Z " fill="#342A2A" transform="translate(276,97)"/>
<path d="M0 0 C3.66881155 0.70554068 6.70450534 2.27735506 10 4 C9.67 4.66 9.34 5.32 9 6 C5.59687262 4.94124926 2.98646769 3.99097846 0 2 C0 1.34 0 0.68 0 0 Z " fill="#1C2026" transform="translate(236,94)"/>
<path d="M0 0 C2.31 0 4.62 0 7 0 C6.67 0.66 6.34 1.32 6 2 C4.68 2 3.36 2 2 2 C2 3.32 2 4.64 2 6 C1.34 6 0.68 6 0 6 C0 4.02 0 2.04 0 0 Z " fill="#D9E7DA" transform="translate(214,74)"/>
<path d="M0 0 C0.33 0.99 0.66 1.98 1 3 C-1.3125 5.0625 -1.3125 5.0625 -4 7 C-4.99 6.67 -5.98 6.34 -7 6 C-6.21625 5.38125 -5.4325 4.7625 -4.625 4.125 C-2.03162353 2.10141339 -2.03162353 2.10141339 0 0 Z " fill="#1C1617" transform="translate(293,93)"/>
<path d="M0 0 C0.33 0 0.66 0 1 0 C1 2.64 1 5.28 1 8 C0.01 8.495 0.01 8.495 -1 9 C-1.625 5.625 -1.625 5.625 -2 2 C-1.34 1.34 -0.68 0.68 0 0 Z " fill="#308FDD" transform="translate(229,72)"/>
<path d="M0 0 C1.65 0 3.3 0 5 0 C5 1.32 5 2.64 5 4 C3.35 4 1.7 4 0 4 C0 2.68 0 1.36 0 0 Z " fill="#609C63" transform="translate(161,59)"/>
<path d="M0 0 C1.65 0 3.3 0 5 0 C5 1.32 5 2.64 5 4 C3.35 4 1.7 4 0 4 C0 2.68 0 1.36 0 0 Z " fill="#5B995E" transform="translate(330,46)"/>
<path d="M0 0 C0.66 0 1.32 0 2 0 C2.66 1.98 3.32 3.96 4 6 C3.34 6 2.68 6 2 6 C1.67 7.32 1.34 8.64 1 10 C1 8.68 1 7.36 1 6 C-0.65 6 -2.3 6 -4 6 C-4 5.67 -4 5.34 -4 5 C-2.35 5 -0.7 5 1 5 C0.67 3.35 0.34 1.7 0 0 Z " fill="#020204" transform="translate(253,37)"/>
<path d="M0 0 C1.65 1.65 3.3 3.3 5 5 C4.34 6.32 3.68 7.64 3 9 C0 3.375 0 3.375 0 0 Z " fill="#1F1818" transform="translate(291,77)"/>
<path d="M0 0 C-0.33 1.65 -0.66 3.3 -1 5 C-1.4125 4.38125 -1.825 3.7625 -2.25 3.125 C-4.05573879 0.93231719 -5.4090534 0.07211583 -8 -1 C-4.37673261 -2.2077558 -3.35853631 -1.54311128 0 0 Z " fill="#1A2B21" transform="translate(252,55)"/>
<path d="M0 0 C0.66 0 1.32 0 2 0 C2 0.99 2 1.98 2 3 C-0.99531539 3.99843846 -2.17255732 4.00732761 -5.1875 3.5625 C-6.445625 3.376875 -7.70375 3.19125 -9 3 C-9 2.34 -9 1.68 -9 1 C-7.700625 1.020625 -6.40125 1.04125 -5.0625 1.0625 C-3.70834367 1.08399454 -2.35243917 1.07148199 -1 1 C-0.67 0.67 -0.34 0.34 0 0 Z " fill="#1D2D1A" transform="translate(270,50)"/>
<path d="M0 0 C0.33 0 0.66 0 1 0 C1.08090971 1.62418745 1.13914995 3.24951745 1.1875 4.875 C1.22230469 5.77992187 1.25710938 6.68484375 1.29296875 7.6171875 C1.19628906 8.40351563 1.09960938 9.18984375 1 10 C0.01 10.66 -0.98 11.32 -2 12 C-1.34 8.04 -0.68 4.08 0 0 Z " fill="#0E1010" transform="translate(267,14)"/>
</svg>
